<svg xmlns="http://www.w3.org/2000/svg" viewBox="0 0 100 100">
  <rect width="100" height="100" rx="22" fill="#111110"/>
  <g transform="translate(18.9 39.6) scale(0.265)" fill="#F4F4F2">
    <polygon points="181.27 50.34 200.34 78.65 227.64 78.65 208.57 50.34 181.27 50.34"/>
    <polygon points="156.43 0 171.28 22.04 208.58 22.04 208.57 50.34 234.65 50.34 234.65 0 156.43 0"/>
    <polygon points="105.12 0 78.22 39.94 78.22 78.65 104.3 78.65 104.3 22.04 130.36 22.04 130.36 78.65 156.43 78.65 156.43 0 105.12 0"/>
    <polygon points="78.22 0 26.07 0 26.07 78.65 52.15 78.65 52.15 22.04 78.22 22.04 78.22 0"/>
    <polygon points="0 22.04 26.07 0 0 0 0 22.04"/>
  </g>
</svg>
